<svg xmlns="http://www.w3.org/2000/svg" xmlns:xlink="http://www.w3.org/1999/xlink" width="500" zoomAndPan="magnify" viewBox="0 0 375 374.999991" height="500" preserveAspectRatio="xMidYMid meet" version="1.0"><defs><g/><clipPath id="01903c857d"><path d="M 51.351562 152.058594 L 121 152.058594 L 121 223 L 51.351562 223 Z M 51.351562 152.058594 " clip-rule="nonzero"/></clipPath><clipPath id="f801d4acfc"><rect x="0" width="155" y="0" height="44"/></clipPath></defs><path stroke-linecap="round" transform="matrix(0, 0.75, -0.75, 0, 136.07654, 140.5371)" fill="none" stroke-linejoin="miter" d="M 0.497408 0.497886 L 124.747416 0.497886 " stroke="#ffffff" stroke-width="1" stroke-opacity="1" stroke-miterlimit="4"/><g clip-path="url(#01903c857d)"><path fill="#ffffff" d="M 120.433594 219.671875 L 100.558594 179.695312 C 94.707031 184.929688 89.554688 194.113281 89.84375 201.636719 L 95.855469 213.496094 C 96.074219 213.921875 96.441406 214.25 96.886719 214.417969 L 118.070312 222.296875 C 119.683594 222.898438 121.199219 221.210938 120.433594 219.671875 Z M 84.765625 197.824219 C 84.714844 197.898438 84.667969 197.980469 84.625 198.0625 L 77.078125 213.359375 C 76.863281 213.792969 76.492188 214.128906 76.039062 214.296875 L 54.464844 222.324219 C 52.863281 222.921875 51.347656 221.257812 52.09375 219.714844 L 84.117188 153.503906 C 84.804688 152.082031 86.824219 152.070312 87.527344 153.484375 L 99.878906 178.328125 C 93.105469 183.167969 87.800781 189.933594 84.765625 197.824219 " fill-opacity="1" fill-rule="nonzero"/></g><g transform="matrix(1, 0, 0, 1, 152, 166)"><g clip-path="url(#f801d4acfc)"><g fill="#ffffff" fill-opacity="1"><g transform="translate(0.344433, 32.014968)"><g><path d="M 10 -21.59375 C 12.269531 -21.59375 14.253906 -21.140625 15.953125 -20.234375 C 17.660156 -19.328125 18.976562 -18.054688 19.90625 -16.421875 C 20.84375 -14.796875 21.3125 -12.921875 21.3125 -10.796875 C 21.3125 -8.679688 20.84375 -6.800781 19.90625 -5.15625 C 18.976562 -3.519531 17.65625 -2.25 15.9375 -1.34375 C 14.226562 -0.445312 12.25 0 10 0 L 1.90625 0 L 1.90625 -21.59375 Z M 9.65625 -4.546875 C 11.644531 -4.546875 13.191406 -5.085938 14.296875 -6.171875 C 15.398438 -7.265625 15.953125 -8.804688 15.953125 -10.796875 C 15.953125 -12.785156 15.398438 -14.332031 14.296875 -15.4375 C 13.191406 -16.539062 11.644531 -17.09375 9.65625 -17.09375 L 7.171875 -17.09375 L 7.171875 -4.546875 Z M 9.65625 -4.546875 "/></g></g></g><g fill="#ffffff" fill-opacity="1"><g transform="translate(22.693679, 32.014968)"><g><path d="M 7.171875 -17.375 L 7.171875 -13 L 14.203125 -13 L 14.203125 -8.953125 L 7.171875 -8.953125 L 7.171875 -4.21875 L 15.125 -4.21875 L 15.125 0 L 1.90625 0 L 1.90625 -21.59375 L 15.125 -21.59375 L 15.125 -17.375 Z M 7.171875 -17.375 "/></g></g></g><g fill="#ffffff" fill-opacity="1"><g transform="translate(39.324962, 32.014968)"><g><path d="M 1.015625 -10.828125 C 1.015625 -12.953125 1.472656 -14.847656 2.390625 -16.515625 C 3.316406 -18.191406 4.601562 -19.492188 6.25 -20.421875 C 7.90625 -21.359375 9.78125 -21.828125 11.875 -21.828125 C 14.4375 -21.828125 16.628906 -21.148438 18.453125 -19.796875 C 20.273438 -18.453125 21.492188 -16.609375 22.109375 -14.265625 L 16.328125 -14.265625 C 15.898438 -15.171875 15.289062 -15.859375 14.5 -16.328125 C 13.707031 -16.796875 12.8125 -17.03125 11.8125 -17.03125 C 10.1875 -17.03125 8.867188 -16.46875 7.859375 -15.34375 C 6.859375 -14.21875 6.359375 -12.710938 6.359375 -10.828125 C 6.359375 -8.941406 6.859375 -7.429688 7.859375 -6.296875 C 8.867188 -5.171875 10.1875 -4.609375 11.8125 -4.609375 C 12.8125 -4.609375 13.707031 -4.84375 14.5 -5.3125 C 15.289062 -5.789062 15.898438 -6.476562 16.328125 -7.375 L 22.109375 -7.375 C 21.492188 -5.039062 20.273438 -3.203125 18.453125 -1.859375 C 16.628906 -0.515625 14.4375 0.15625 11.875 0.15625 C 9.78125 0.15625 7.90625 -0.304688 6.25 -1.234375 C 4.601562 -2.171875 3.316406 -3.46875 2.390625 -5.125 C 1.472656 -6.789062 1.015625 -8.691406 1.015625 -10.828125 Z M 1.015625 -10.828125 "/></g></g></g><g fill="#ffffff" fill-opacity="1"><g transform="translate(62.75017, 32.014968)"><g><path d="M 14.421875 0 L 7.171875 -9.53125 L 7.171875 0 L 1.90625 0 L 1.90625 -21.59375 L 7.171875 -21.59375 L 7.171875 -12.109375 L 14.359375 -21.59375 L 20.546875 -21.59375 L 12.171875 -11.015625 L 20.84375 0 Z M 14.421875 0 "/></g></g></g><g fill="#ffffff" fill-opacity="1"><g transform="translate(84.177172, 32.014968)"><g><path d="M 4.359375 0.25 C 3.441406 0.25 2.691406 -0.0195312 2.109375 -0.5625 C 1.523438 -1.113281 1.234375 -1.785156 1.234375 -2.578125 C 1.234375 -3.398438 1.523438 -4.085938 2.109375 -4.640625 C 2.691406 -5.191406 3.441406 -5.46875 4.359375 -5.46875 C 5.265625 -5.46875 6.007812 -5.191406 6.59375 -4.640625 C 7.175781 -4.085938 7.46875 -3.398438 7.46875 -2.578125 C 7.46875 -1.785156 7.175781 -1.113281 6.59375 -0.5625 C 6.007812 -0.0195312 5.265625 0.25 4.359375 0.25 Z M 4.359375 -12.265625 C 3.441406 -12.265625 2.691406 -12.535156 2.109375 -13.078125 C 1.523438 -13.628906 1.234375 -14.300781 1.234375 -15.09375 C 1.234375 -15.914062 1.523438 -16.601562 2.109375 -17.15625 C 2.691406 -17.707031 3.441406 -17.984375 4.359375 -17.984375 C 5.265625 -17.984375 6.007812 -17.707031 6.59375 -17.15625 C 7.175781 -16.601562 7.46875 -15.914062 7.46875 -15.09375 C 7.46875 -14.300781 7.175781 -13.628906 6.59375 -13.078125 C 6.007812 -12.535156 5.265625 -12.265625 4.359375 -12.265625 Z M 4.359375 -12.265625 "/></g></g></g><g fill="#ffffff" fill-opacity="1"><g transform="translate(92.907834, 32.014968)"><g><path d="M 15.34375 -3.8125 L 7.28125 -3.8125 L 6 0 L 0.484375 0 L 8.296875 -21.59375 L 14.390625 -21.59375 L 22.203125 0 L 16.640625 0 Z M 13.984375 -7.875 L 11.3125 -15.78125 L 8.671875 -7.875 Z M 13.984375 -7.875 "/></g></g></g><g fill="#ffffff" fill-opacity="1"><g transform="translate(115.564506, 32.014968)"><g><path d="M 18.359375 -14.640625 C 18.359375 -13.390625 18.070312 -12.242188 17.5 -11.203125 C 16.925781 -10.171875 16.039062 -9.335938 14.84375 -8.703125 C 13.65625 -8.066406 12.179688 -7.75 10.421875 -7.75 L 7.171875 -7.75 L 7.171875 0 L 1.90625 0 L 1.90625 -21.59375 L 10.421875 -21.59375 C 12.140625 -21.59375 13.59375 -21.289062 14.78125 -20.6875 C 15.976562 -20.09375 16.875 -19.273438 17.46875 -18.234375 C 18.0625 -17.191406 18.359375 -15.992188 18.359375 -14.640625 Z M 10.03125 -11.9375 C 11.03125 -11.9375 11.773438 -12.171875 12.265625 -12.640625 C 12.753906 -13.109375 13 -13.773438 13 -14.640625 C 13 -15.492188 12.753906 -16.15625 12.265625 -16.625 C 11.773438 -17.101562 11.03125 -17.34375 10.03125 -17.34375 L 7.171875 -17.34375 L 7.171875 -11.9375 Z M 10.03125 -11.9375 "/></g></g></g><g fill="#ffffff" fill-opacity="1"><g transform="translate(134.747357, 32.014968)"><g><path d="M 18.359375 -14.640625 C 18.359375 -13.390625 18.070312 -12.242188 17.5 -11.203125 C 16.925781 -10.171875 16.039062 -9.335938 14.84375 -8.703125 C 13.65625 -8.066406 12.179688 -7.75 10.421875 -7.75 L 7.171875 -7.75 L 7.171875 0 L 1.90625 0 L 1.90625 -21.59375 L 10.421875 -21.59375 C 12.140625 -21.59375 13.59375 -21.289062 14.78125 -20.6875 C 15.976562 -20.09375 16.875 -19.273438 17.46875 -18.234375 C 18.0625 -17.191406 18.359375 -15.992188 18.359375 -14.640625 Z M 10.03125 -11.9375 C 11.03125 -11.9375 11.773438 -12.171875 12.265625 -12.640625 C 12.753906 -13.109375 13 -13.773438 13 -14.640625 C 13 -15.492188 12.753906 -16.15625 12.265625 -16.625 C 11.773438 -17.101562 11.03125 -17.34375 10.03125 -17.34375 L 7.171875 -17.34375 L 7.171875 -11.9375 Z M 10.03125 -11.9375 "/></g></g></g></g></g></svg>