<svg width="300" height="600" viewBox="0 0 300 600" fill="none" xmlns="http://www.w3.org/2000/svg">
  <!-- Fondo del móvil -->
  <rect width="300" height="600" rx="40" fill="#1F2937"/>
  
  <!-- Pantalla -->
  <rect x="20" y="40" width="260" height="520" rx="20" fill="#111827"/>
  
  <!-- Status bar -->
  <rect x="30" y="50" width="240" height="30" fill="#111827"/>
  <text x="40" y="70" fill="white" font-family="Arial" font-size="14" font-weight="bold">9:41</text>
  <circle cx="250" cy="65" r="3" fill="white"/>
  <circle cx="260" cy="65" r="3" fill="white"/>
  <circle cx="270" cy="65" r="3" fill="white"/>
  
  <!-- Header -->
  <rect x="30" y="90" width="240" height="40" fill="#111827"/>
  <rect x="40" y="100" width="20" height="20" fill="#6B7280"/>
  <text x="70" y="115" fill="white" font-family="Arial" font-size="16" font-weight="500">Documents</text>
  
  <!-- Card 1 -->
  <rect x="30" y="140" width="240" height="120" rx="12" fill="#374151"/>
  <text x="40" y="160" fill="#9CA3AF" font-family="Arial" font-size="12">Total Revenue</text>
  <text x="40" y="185" fill="white" font-family="Arial" font-size="24" font-weight="bold">$1,250.00</text>
  <text x="40" y="210" fill="#10B981" font-family="Arial" font-size="12">↗ +12.5%</text>
  <text x="40" y="230" fill="#6B7280" font-family="Arial" font-size="10">Trending up this month</text>
  <text x="40" y="245" fill="#6B7280" font-family="Arial" font-size="10">Visitors for the last 6 months</text>
  
  <!-- Card 2 -->
  <rect x="30" y="270" width="240" height="100" rx="12" fill="#374151"/>
  <text x="40" y="290" fill="#9CA3AF" font-family="Arial" font-size="12">Total Visitors</text>
  <text x="200" y="290" fill="#9CA3AF" font-family="Arial" font-size="12">Last 7 days ▼</text>
  
  <!-- Chart bars -->
  <rect x="40" y="320" width="8" height="20" fill="#3B82F6"/>
  <rect x="55" y="310" width="8" height="30" fill="#3B82F6"/>
  <rect x="70" y="330" width="8" height="10" fill="#3B82F6"/>
  <rect x="85" y="315" width="8" height="25" fill="#3B82F6"/>
  <rect x="100" y="305" width="8" height="35" fill="#3B82F6"/>
  <rect x="115" y="320" width="8" height="20" fill="#3B82F6"/>
  <rect x="130" y="312" width="8" height="28" fill="#3B82F6"/>
</svg>
